<mxfile host="Electron" modified="2024-04-25T21:59:59.202Z" agent="Mozilla/5.0 (X11; Linux x86_64) AppleWebKit/537.36 (KHTML, like Gecko) draw.io/21.6.5 Chrome/114.0.5735.243 Electron/25.3.1 Safari/537.36" etag="sVEnR3q98c-53BQAi3kg" version="21.6.5" type="device">
  <diagram name="Page-1" id="l-DM_fYlzvVIUVRDgFh1">
    <mxGraphModel dx="828" dy="558" grid="1" gridSize="10" guides="1" tooltips="1" connect="1" arrows="1" fold="1" page="1" pageScale="1" pageWidth="827" pageHeight="1169" math="0" shadow="0">
      <root>
        <mxCell id="0" />
        <mxCell id="1" parent="0" />
        <mxCell id="jyQOK9qtBp4xA-2xft1N-3" value="" style="ellipse;shape=cloud;whiteSpace=wrap;html=1;fillColor=#f5f5f5;fontColor=#333333;strokeColor=#666666;" parent="1" vertex="1">
          <mxGeometry x="145" y="375" width="245" height="125" as="geometry" />
        </mxCell>
        <mxCell id="bKbwyqV6KYPhBkF5rK16-12" value="" style="endArrow=classic;html=1;rounded=0;entryX=0;entryY=0.25;entryDx=0;entryDy=0;" edge="1" parent="1">
          <mxGeometry width="50" height="50" relative="1" as="geometry">
            <mxPoint x="160" y="440" as="sourcePoint" />
            <mxPoint x="440" y="440" as="targetPoint" />
          </mxGeometry>
        </mxCell>
        <mxCell id="bKbwyqV6KYPhBkF5rK16-3" value="" style="group" vertex="1" connectable="0" parent="1">
          <mxGeometry x="190" y="420" width="40" height="40" as="geometry" />
        </mxCell>
        <mxCell id="jyQOK9qtBp4xA-2xft1N-4" value="" style="rounded=0;whiteSpace=wrap;html=1;fillColor=#fff2cc;strokeColor=#d6b656;" parent="bKbwyqV6KYPhBkF5rK16-3" vertex="1">
          <mxGeometry width="40" height="40" as="geometry" />
        </mxCell>
        <mxCell id="bKbwyqV6KYPhBkF5rK16-1" value="" style="triangle;whiteSpace=wrap;html=1;rotation=-90;fillColor=#fff2cc;strokeColor=#d6b656;" vertex="1" parent="bKbwyqV6KYPhBkF5rK16-3">
          <mxGeometry x="15" y="25" width="10" height="20" as="geometry" />
        </mxCell>
        <mxCell id="bKbwyqV6KYPhBkF5rK16-4" value="" style="group" vertex="1" connectable="0" parent="1">
          <mxGeometry x="250" y="420" width="40" height="40" as="geometry" />
        </mxCell>
        <mxCell id="bKbwyqV6KYPhBkF5rK16-5" value="" style="rounded=0;whiteSpace=wrap;html=1;fillColor=#fff2cc;strokeColor=#d6b656;" vertex="1" parent="bKbwyqV6KYPhBkF5rK16-4">
          <mxGeometry width="40" height="40" as="geometry" />
        </mxCell>
        <mxCell id="bKbwyqV6KYPhBkF5rK16-6" value="" style="triangle;whiteSpace=wrap;html=1;rotation=-90;fillColor=#fff2cc;strokeColor=#d6b656;" vertex="1" parent="bKbwyqV6KYPhBkF5rK16-4">
          <mxGeometry x="15" y="25" width="10" height="20" as="geometry" />
        </mxCell>
        <mxCell id="bKbwyqV6KYPhBkF5rK16-7" value="" style="group" vertex="1" connectable="0" parent="1">
          <mxGeometry x="310" y="420" width="40" height="40" as="geometry" />
        </mxCell>
        <mxCell id="bKbwyqV6KYPhBkF5rK16-8" value="" style="rounded=0;whiteSpace=wrap;html=1;fillColor=#fff2cc;strokeColor=#d6b656;" vertex="1" parent="bKbwyqV6KYPhBkF5rK16-7">
          <mxGeometry width="40" height="40" as="geometry" />
        </mxCell>
        <mxCell id="bKbwyqV6KYPhBkF5rK16-9" value="" style="triangle;whiteSpace=wrap;html=1;rotation=-90;fillColor=#fff2cc;strokeColor=#d6b656;" vertex="1" parent="bKbwyqV6KYPhBkF5rK16-7">
          <mxGeometry x="15" y="25" width="10" height="20" as="geometry" />
        </mxCell>
        <mxCell id="bKbwyqV6KYPhBkF5rK16-14" value="" style="endArrow=none;html=1;rounded=0;exitX=0;exitY=0.75;exitDx=0;exitDy=0;" edge="1" parent="1">
          <mxGeometry width="50" height="50" relative="1" as="geometry">
            <mxPoint x="440" y="520" as="sourcePoint" />
            <mxPoint x="160" y="440" as="targetPoint" />
            <Array as="points">
              <mxPoint x="160" y="520" />
            </Array>
          </mxGeometry>
        </mxCell>
        <mxCell id="bKbwyqV6KYPhBkF5rK16-15" value="ready&#39;-3" style="text;html=1;strokeColor=none;fillColor=none;align=center;verticalAlign=middle;whiteSpace=wrap;rounded=0;fontFamily=Courier New;fontColor=#006600;" vertex="1" parent="1">
          <mxGeometry x="370" y="500" width="70" height="20" as="geometry" />
        </mxCell>
        <mxCell id="bKbwyqV6KYPhBkF5rK16-16" value="valid&#39;0" style="text;html=1;strokeColor=none;fillColor=none;align=center;verticalAlign=middle;whiteSpace=wrap;rounded=0;fontFamily=Courier New;fontColor=#006600;" vertex="1" parent="1">
          <mxGeometry x="370" y="420" width="70" height="20" as="geometry" />
        </mxCell>
        <mxCell id="bKbwyqV6KYPhBkF5rK16-18" value="" style="endArrow=classic;html=1;rounded=0;entryX=0;entryY=0.25;entryDx=0;entryDy=0;" edge="1" parent="1">
          <mxGeometry width="50" height="50" relative="1" as="geometry">
            <mxPoint x="370" y="420" as="sourcePoint" />
            <mxPoint x="440" y="420" as="targetPoint" />
          </mxGeometry>
        </mxCell>
        <mxCell id="bKbwyqV6KYPhBkF5rK16-19" value="data&#39;0" style="text;html=1;strokeColor=none;fillColor=none;align=center;verticalAlign=middle;whiteSpace=wrap;rounded=0;fontFamily=Courier New;fontColor=#006600;" vertex="1" parent="1">
          <mxGeometry x="380" y="400" width="60" height="20" as="geometry" />
        </mxCell>
        <mxCell id="bKbwyqV6KYPhBkF5rK16-28" value="" style="rounded=0;whiteSpace=wrap;html=1;fillColor=#d5e8d4;strokeColor=#82b366;" vertex="1" parent="1">
          <mxGeometry x="440" y="380" width="40" height="180" as="geometry" />
        </mxCell>
        <mxCell id="bKbwyqV6KYPhBkF5rK16-30" value="" style="rounded=0;whiteSpace=wrap;html=1;fillColor=#f8cecc;strokeColor=#b85450;" vertex="1" parent="1">
          <mxGeometry x="480" y="380" width="40" height="180" as="geometry" />
        </mxCell>
        <mxCell id="bKbwyqV6KYPhBkF5rK16-31" value="FIFO" style="text;html=1;strokeColor=none;fillColor=none;align=center;verticalAlign=middle;whiteSpace=wrap;rounded=0;" vertex="1" parent="1">
          <mxGeometry x="450" y="350" width="60" height="30" as="geometry" />
        </mxCell>
        <mxCell id="bKbwyqV6KYPhBkF5rK16-32" value="" style="endArrow=classic;html=1;rounded=0;" edge="1" parent="1">
          <mxGeometry width="50" height="50" relative="1" as="geometry">
            <mxPoint x="640" y="520" as="sourcePoint" />
            <mxPoint x="520" y="520" as="targetPoint" />
          </mxGeometry>
        </mxCell>
        <mxCell id="bKbwyqV6KYPhBkF5rK16-33" value="valid&#39;2" style="text;html=1;strokeColor=none;fillColor=none;align=center;verticalAlign=middle;whiteSpace=wrap;rounded=0;fontFamily=Courier New;fontColor=#FF0000;" vertex="1" parent="1">
          <mxGeometry x="520" y="420" width="70" height="20" as="geometry" />
        </mxCell>
        <mxCell id="bKbwyqV6KYPhBkF5rK16-34" value="" style="endArrow=classic;html=1;rounded=0;entryX=0;entryY=0.25;entryDx=0;entryDy=0;exitX=0;exitY=1;exitDx=0;exitDy=0;" edge="1" parent="1" source="bKbwyqV6KYPhBkF5rK16-35">
          <mxGeometry width="50" height="50" relative="1" as="geometry">
            <mxPoint x="529" y="420" as="sourcePoint" />
            <mxPoint x="599" y="420" as="targetPoint" />
          </mxGeometry>
        </mxCell>
        <mxCell id="bKbwyqV6KYPhBkF5rK16-35" value="data&#39;2" style="text;html=1;strokeColor=none;fillColor=none;align=center;verticalAlign=middle;whiteSpace=wrap;rounded=0;fontFamily=Courier New;fontColor=#FF0000;" vertex="1" parent="1">
          <mxGeometry x="520" y="400" width="60" height="20" as="geometry" />
        </mxCell>
        <mxCell id="bKbwyqV6KYPhBkF5rK16-36" value="req&#39;0" style="text;html=1;strokeColor=none;fillColor=none;align=center;verticalAlign=middle;whiteSpace=wrap;rounded=0;fontFamily=Courier New;fontColor=#FF0000;" vertex="1" parent="1">
          <mxGeometry x="520" y="500" width="70" height="20" as="geometry" />
        </mxCell>
        <mxCell id="bKbwyqV6KYPhBkF5rK16-37" value="" style="ellipse;shape=cloud;whiteSpace=wrap;html=1;fillColor=#f5f5f5;fontColor=#333333;strokeColor=#666666;" vertex="1" parent="1">
          <mxGeometry x="575" y="365" width="165" height="195" as="geometry" />
        </mxCell>
        <mxCell id="bKbwyqV6KYPhBkF5rK16-38" value="" style="endArrow=classic;html=1;rounded=0;entryX=0;entryY=0.25;entryDx=0;entryDy=0;exitX=0;exitY=1;exitDx=0;exitDy=0;" edge="1" parent="1" source="bKbwyqV6KYPhBkF5rK16-33">
          <mxGeometry width="50" height="50" relative="1" as="geometry">
            <mxPoint x="508" y="440" as="sourcePoint" />
            <mxPoint x="587" y="440" as="targetPoint" />
          </mxGeometry>
        </mxCell>
      </root>
    </mxGraphModel>
  </diagram>
</mxfile>
